<?xml version="1.0" encoding="UTF-8"?>
<svg width="100mm" height="57.122mm" version="1.0" viewBox="0 0 283.46 161.92" xmlns="http://www.w3.org/2000/svg">
 <g transform="matrix(.014068 0 0 -.014068 0 161.92)" fill="#ff4a4a">
  <path transform="matrix(7.5,0,0,-7.5,0,11510)" d="m0 0v768h2686.7v-768h-1343.3zm250.67 97.336 308-0.0019v70.666h76v73.334h-153.33v-72h-152v72h-77.334v285.33h77.334v70.668h152v-70.668h153.33v72h-76v72h-308v-72h-76v-70.666h-77.332v-288h77.332v-72h76zm498.67-0.0019h154.67v500h228v-500h154.67v501.33h-76v72h-385.33v-72h-76zm650.67 0h461.33v70.666h77.332v145.33h-77.332v69.332h77.332v216h-77.332v72h-461.33zm652 0h537.33v72h-382.67v142.67h229.33v72h-229.33v213.33h382.67v73.332h-537.33zm-497.33 72v142.67h229.33v-142.67zm0 214.67v213.33h229.33v-213.33zm-1457.3 480v573.33h154.67v-285.33h230.67v-73.334h-230.67v-141.33h382.67v-73.334zm728 0v72h-76v430.67h76v70.668h385.33v-70.668h76v-430.67h-76v-72zm574.67 0v573.33h154.67v-285.33h229.33v285.33h154.67v-286.67h-77.332v-70.666h77.332v-144h-77.332v-72zm652 0v573.33h154.67v-285.33h74.668v70.666h78.666v-70.666h74.666v285.33h154.67v-573.33h-77.334v72h-77.334v72h-76v70.666h-76v-70.666h-76v-72h-77.332v-72zm-1148 73.334h228v428h-228zm650.67 0h229.33v141.33h-229.33z" fill="#ff4a4a" stroke-width=".13228"/>
 </g>
</svg>
